HIERARCHY
ROOT Hips
{
	OFFSET 0.000000 0.000000 0.000000
	CHANNELS 6 Xposition Yposition Zposition Zrotation Yrotation Xrotation 
	JOINT LHipJoint
	{
		OFFSET 0.000000 0.000000 0.000000
		CHANNELS 3 Zrotation Yrotation Xrotation
		JOINT LeftUpLeg
		{
			OFFSET 1.363060 -1.794630 0.839290
			CHANNELS 3 Zrotation Yrotation Xrotation
			JOINT LeftLeg
			{
				OFFSET 2.448110 -6.726130 0.000000
				CHANNELS 3 Zrotation Yrotation Xrotation
				JOINT LeftFoot
				{
					OFFSET 2.562200 -7.039590 0.000000
					CHANNELS 3 Zrotation Yrotation Xrotation
					JOINT LeftToeBase
					{
						OFFSET 0.157640 -0.433110 2.322550
						CHANNELS 3 Zrotation Yrotation Xrotation
						End Site
						{
							OFFSET 0.000000 0.000000 0.000000
						}
					}
				}
			}
		}
	}
	JOINT RHipJoint
	{
		OFFSET 0.000000 0.000000 0.000000
		CHANNELS 3 Zrotation Yrotation Xrotation
		JOINT RightUpLeg
		{
			OFFSET -1.305520 -1.794630 0.839290
			CHANNELS 3 Zrotation Yrotation Xrotation
			JOINT RightLeg
			{
				OFFSET -2.542530 -6.985550 0.000000
				CHANNELS 3 Zrotation Yrotation Xrotation
				JOINT RightFoot
				{
					OFFSET -2.568260 -7.056230 0.000000
					CHANNELS 3 Zrotation Yrotation Xrotation
					JOINT RightToeBase
					{
						OFFSET -0.164730 -0.452590 2.363150
						CHANNELS 3 Zrotation Yrotation Xrotation
						End Site
						{
							OFFSET 0.000000 0.000000 0.000000
						}
					}
				}
			}
		}
	}
}
MOTION
Frames: 19
Frame Time: 0.008333
24.346759 16.283273 2.315034 36.737462 -85.455948 -22.435301 -8.132270 2.227935 7.147306 -18.476441 -9.264672 -45.608129 -3.641525 0.061886 12.498203 -0.440593 -0.856527 9.936434 0.467701 -0.000000 -22.549200 10.304966 -5.542459 1.353409 6.867196 -9.029948 12.177427 1.315742 -1.391135 14.108118 0.823632 12.822497 19.424663 5.276100 -0.000000 -78.595500
24.133337 16.318441 2.299753 40.274741 -84.925264 -26.010088 -7.861368 2.440996 7.227803 -19.201390 -9.724998 -45.013072 -3.690496 0.132371 13.244758 -0.399047 -0.663701 9.274768 0.527600 -0.000000 -21.591800 10.703997 -5.506713 1.389780 5.863173 -9.313449 11.139039 0.969131 -1.540128 16.245663 0.681606 14.105760 22.254715 6.515300 -0.000000 -79.678900
23.925390 16.354799 2.285823 43.169769 -84.351790 -28.934452 -7.599266 2.609945 7.326129 -19.809628 -10.347847 -44.301583 -3.728405 0.178790 13.866965 -0.339919 -0.377356 8.496758 0.609400 -0.000000 -20.670100 11.100340 -5.434742 1.392224 4.837710 -9.654735 9.968933 0.638013 -1.656885 18.571874 0.511944 15.603294 25.047136 7.966100 -0.000000 -79.808900
23.723525 16.392189 2.274993 45.290429 -83.787073 -31.070133 -7.374130 2.729701 7.427012 -20.279205 -11.036360 -43.534963 -3.751532 0.207174 14.404769 -0.270773 -0.062026 7.626229 0.688300 -0.000000 -19.762800 11.455984 -5.331513 1.376014 3.899844 -9.979719 8.679942 0.341471 -1.741916 21.049978 0.320915 17.116365 27.723946 9.513200 -0.000000 -78.948900
23.528375 16.430404 2.267018 46.969363 -83.252858 -32.762316 -7.180074 2.810020 7.523316 -20.639312 -11.750853 -42.686386 -3.764754 0.215019 14.810613 -0.191776 0.291976 6.723421 0.765400 -0.000001 -18.890400 11.774213 -5.195879 1.334475 3.028024 -10.315022 7.289636 0.085276 -1.800282 23.670041 0.119182 18.501846 30.191264 11.032500 0.000000 -77.133800
23.340141 16.469325 2.262350 48.278067 -82.775293 -34.091189 -7.024410 2.857028 7.602019 -20.910720 -12.413095 -41.770972 -3.771001 0.205060 15.085849 -0.109393 0.649247 5.827890 0.830100 -0.000000 -18.071700 12.045249 -5.036429 1.271056 2.249935 -10.651709 5.811676 -0.127418 -1.842526 26.406819 -0.083501 19.540918 32.373475 12.334501 -0.000000 -74.552400
23.158728 16.508833 2.260520 49.388726 -82.360586 -35.243191 -6.901600 2.881105 7.655367 -21.133063 -12.976110 -40.771466 -3.776259 0.177158 15.202304 -0.027291 1.002718 4.986440 0.883200 0.000000 -17.345400 12.274871 -4.858435 1.183292 1.545934 -11.007417 4.265578 -0.303032 -1.879576 29.236511 -0.281514 20.039240 34.209511 13.230800 0.000000 -71.501600
22.983899 16.548870 2.261658 50.323349 -82.019426 -36.245230 -6.815968 2.889574 7.672956 -21.330997 -13.374491 -39.703245 -3.784073 0.134894 15.172212 0.046736 1.312775 4.221568 0.917600 -0.000000 -16.738300 12.460402 -4.670990 1.077207 0.933480 -11.368553 2.667717 -0.450546 -1.921296 32.122525 -0.474207 19.803113 35.658811 13.536800 0.000001 -68.381100
22.815104 16.589375 2.265416 51.136987 -81.750525 -37.159242 -6.765760 2.890022 7.648967 -21.529750 -13.569793 -38.569054 -3.798252 0.080561 14.999237 0.107070 1.554890 3.550855 0.931900 -0.000001 -16.274700 12.606058 -4.478767 0.957084 0.410073 -11.727256 1.038943 -0.581469 -1.973726 35.026797 -0.665141 18.709738 36.679010 13.129299 -0.000000 -65.559000
22.651745 16.630307 2.271870 51.801772 -81.555305 -37.958187 -6.754549 2.887153 7.578361 -21.737430 -13.524622 -37.395373 -3.820068 0.018649 14.715585 0.146726 1.688131 2.972036 0.920900 -0.000000 -15.960601 12.711092 -4.287275 0.831293 -0.006473 -12.061177 -0.605174 -0.704855 -2.039879 37.907814 -0.859468 16.707062 37.217408 11.959200 -0.000000 -63.275700
22.493124 16.671545 2.280333 52.384464 -81.417980 -38.713220 -6.773406 2.886227 7.463993 -21.968087 -13.250634 -36.175504 -3.851737 -0.050069 14.321181 0.164794 1.711348 2.488107 0.889100 0.000000 -15.796700 12.785163 -4.095399 0.701141 -0.340732 -12.369543 -2.239123 -0.827871 -2.120056 40.726369 -1.061271 13.863047 37.197855 10.090300 0.000000 -61.546401
22.338308 16.712941 2.290829 52.839393 -81.333316 -39.372439 -6.822805 2.888736 7.309243 -22.210528 -12.753194 -34.939122 -3.891627 -0.121730 13.854780 0.158672 1.601145 2.080945 0.833900 0.000000 -15.762100 12.828506 -3.907031 0.573289 -0.583474 -12.635909 -3.851346 -0.952494 -2.214115 43.442692 -1.271208 10.333087 36.544777 7.681000 0.000001 -60.221400
22.186398 16.754379 2.303403 53.122480 -81.294635 -39.880014 -6.901529 2.894676 7.122676 -22.445424 -12.061167 -33.717903 -3.936812 -0.193346 13.352977 0.128843 1.349672 1.729489 0.756100 -0.000000 -15.826900 12.841903 -3.726602 0.453804 -0.729035 -12.847366 -5.437929 -1.077355 -2.321279 46.019554 -1.485629 6.372789 35.204484 4.985000 -0.000000 -59.025600
22.037265 16.795405 2.316776 53.345463 -81.271432 -40.361485 -6.988500 2.904516 6.915395 -22.679694 -11.262541 -32.461340 -3.986850 -0.268167 12.781616 0.085190 1.018431 1.436123 0.670101 0.000000 -15.970100 12.842506 -3.546939 0.331190 -0.844464 -13.029791 -6.959687 -1.200244 -2.441069 48.422173 -1.696621 2.320665 33.162398 2.320100 -0.000001 -57.616300
21.889880 16.836026 2.331963 53.342492 -81.275908 -40.616640 -7.095997 2.913749 6.700001 -22.863628 -10.381969 -31.251010 -4.034182 -0.340680 12.215961 0.027595 0.586598 1.163106 0.571600 0.000000 -16.146500 12.818939 -3.381410 0.222501 -0.875356 -13.147404 -8.450628 -1.313810 -2.570339 50.621679 -1.894763 -1.529366 30.488557 -0.040900 -0.000000 -55.768200
21.743937 16.875909 2.348343 53.149265 -81.292601 -40.678415 -7.213608 2.919790 6.488993 -22.987474 -9.498496 -30.066905 -4.075679 -0.412994 11.641545 -0.034791 0.110229 0.906635 0.471900 -0.000000 -16.329900 12.779302 -3.228112 0.124935 -0.852794 -13.208756 -9.901878 -1.412007 -2.705292 52.595013 -2.069767 -4.913733 27.304043 -1.886800 -0.000000 -53.328900
21.599296 16.914789 2.365853 52.753833 -81.317546 -40.519803 -7.338447 2.919780 6.293704 -23.035909 -8.669163 -28.916448 -4.107690 -0.485671 11.063732 -0.095719 -0.372725 0.656428 0.377699 0.000000 -16.496199 12.725367 -3.088272 0.042452 -0.780593 -13.209877 -11.325549 -1.488223 -2.840683 54.330557 -2.212367 -7.672454 23.774199 -3.125500 0.000001 -50.299800
21.455430 16.952406 2.384296 52.164980 -81.347839 -40.141210 -7.467453 2.911463 6.121937 -23.002321 -7.938750 -27.797047 -4.127727 -0.559856 10.477020 -0.149797 -0.823408 0.410231 0.295001 -0.000000 -16.630200 12.659179 -2.960850 -0.022516 -0.665917 -13.150032 -12.731692 -1.537108 -2.971329 55.824048 -2.314993 -9.739797 20.078404 -3.772900 -0.000000 -46.815300
21.312540 16.988439 2.403510 51.404292 -81.383323 -39.556305 -7.598423 2.894340 5.977855 -22.888741 -7.329411 -26.709388 -4.134984 -0.636247 9.877895 -0.194013 -1.215913 0.167341 0.226700 -0.000000 -16.725901 12.582319 -2.844235 -0.066849 -0.513384 -13.028771 -14.133049 -1.555467 -3.092712 57.079935 -2.372702 -11.127071 16.384953 -3.924200 0.000000 -43.120201
